<svg id="Layer_1" enable-background="new 0 0 496 496" fill="currentColor" height="512" viewBox="0 0 496 496" width="512" xmlns="http://www.w3.org/2000/svg"><path d="m448 132.5h-144c-8.837 0-16 7.163-16 16s7.163 16 16 16h65.148c7.037 48.977 45.876 87.815 94.852 94.852v82.296c-48.977 7.037-87.815 45.875-94.852 94.852h-242.296c-7.037-48.977-45.876-87.815-94.852-94.852v-82.296c48.977-7.037 87.815-45.875 94.852-94.852h65.148c8.837 0 16-7.163 16-16s-7.163-16-16-16h-144c-26.468 0-48 21.532-48 48v240c0 26.468 21.532 48 48 48h400c26.468 0 48-21.532 48-48v-240c0-26.468-21.532-48-48-48zm-46.39 32h46.39c8.822 0 16 7.178 16 16v46.39c-31.3-6.379-56.011-31.09-62.39-62.39zm-353.61 0h46.39c-6.379 31.3-31.09 56.011-62.39 62.39v-46.39c0-8.823 7.178-16 16-16zm-16 256v-46.39c31.3 6.379 56.011 31.09 62.39 62.39h-46.39c-8.822 0-16-7.178-16-16zm416 16h-46.39c6.379-31.3 31.09-56.011 62.39-62.39v46.39c0 8.822-7.178 16-16 16zm-288-136c0 48.523 39.477 88 88 88s88-39.477 88-88-39.477-88-88-88-88 39.476-88 88zm144 0c0 30.879-25.121 56-56 56s-56-25.121-56-56 25.121-56 56-56 56 25.121 56 56zm-184-16c8.837 0 16 7.163 16 16s-7.163 16-16 16h-8c-8.837 0-16-7.163-16-16s7.163-16 16-16zm256 32c-8.837 0-16-7.163-16-16s7.163-16 16-16h8c8.837 0 16 7.163 16 16s-7.163 16-16 16zm-172.313-228.687c-6.249-6.248-6.249-16.379 0-22.627l33-33c6.248-6.248 16.379-6.248 22.627 0l33 33c6.249 6.248 6.249 16.379 0 22.627-6.249 6.249-16.379 6.248-22.627 0l-5.687-5.686v76.373c0 8.837-7.163 16-16 16s-16-7.163-16-16v-76.373l-5.687 5.687c-6.248 6.247-16.378 6.247-22.626-.001z"/></svg>